<?xml version="1.0" encoding="utf-8"?>
<!-- Generator: Adobe Illustrator 27.5.0, SVG Export Plug-In . SVG Version: 6.00 Build 0)  -->
<svg version="1.2" baseProfile="tiny" id="Layer_1" xmlns="http://www.w3.org/2000/svg" xmlns:xlink="http://www.w3.org/1999/xlink"
	 x="0px" y="0px" viewBox="0 0 607 232.6" overflow="visible" xml:space="preserve">
<g id="CTF_logo__x2B__text">
	<g>
		<path fill="#F6F7EB" d="M280.9,99.9c0-10.5,7.8-18.5,18.5-18.5c8.8,0,15.5,5.5,17.4,13.3h-9.3c-1.4-3.1-4.3-5-8.1-5
			c-5.9,0-9.8,4.3-9.8,10.3s3.8,10.3,9.8,10.3c3.8,0,6.7-1.9,8.1-5h9.3c-1.9,7.8-8.6,13.3-17.4,13.3
			C288.7,118.4,280.9,110.4,280.9,99.9z"/>
		<path fill="#F6F7EB" d="M341,106.3v11.4h-8.7v-11.3L319.9,82h9.8l7,14.6l7-14.6h9.7L341,106.3z"/>
		<path fill="#F6F7EB" d="M388.6,107.3c0,6.7-5.1,10.5-12.2,10.5h-16.1V82h16.1c6.2,0,11,3.1,11,9.4c0,3.5-1.5,5.6-4.2,7
			C386.9,99.7,388.6,103.2,388.6,107.3z M375.2,90.3H369v5.4h6.6c1.9,0,3-0.8,3-2.7C378.6,90.7,377.3,90.3,375.2,90.3z M379.8,106.5
			c0-2-0.7-3-3.6-3H369v5.9h7.2C379.1,109.5,379.8,108.4,379.8,106.5z"/>
		<path fill="#F6F7EB" d="M404.7,90.3v5.3h14.5v8.3h-14.5v5.6h15.9v8.3H396V82h24.6v8.3H404.7z"/>
		<path fill="#F6F7EB" d="M438.9,105.3h-2.7v12.4h-8.7V82h15.9c7.6,0,12.3,4.5,12.3,11.9c0,5.7-2.8,9.1-7.1,10.6l9.4,13.2h-10.6
			L438.9,105.3z M442.5,90.3h-6.3v7.5h6.3c3,0,4.4-1.2,4.4-3.7C446.9,91.6,445.4,90.3,442.5,90.3z"/>
		<path fill="#F6F7EB" d="M476.9,99.9c0-10.5,7.8-18.5,18.5-18.5c8.8,0,15.5,5.5,17.4,13.3h-9.3c-1.4-3.1-4.3-5-8.1-5
			c-5.9,0-9.8,4.3-9.8,10.3s3.8,10.3,9.8,10.3c3.8,0,6.7-1.9,8.1-5h9.3c-1.9,7.8-8.6,13.3-17.4,13.3
			C484.7,118.4,476.9,110.4,476.9,99.9z"/>
		<path fill="#F6F7EB" d="M550.3,82l-0.1,21.1c0,10.2-6.4,15.3-15,15.3s-15-5.1-15-15.3V82h8.8v20.6c0,5.6,2.5,7.5,6.2,7.5
			s6.2-1.9,6.2-7.5V82H550.3z"/>
		<path fill="#F6F7EB" d="M587.5,94.3c0,7.9-5.3,12.5-12.9,12.5H568v11h-8.7V82h15.3C582.1,82,587.5,86.3,587.5,94.3z M578.7,94.4
			c0-2.7-1.5-4.1-4.4-4.1H568v8.2h6.3C577.2,98.4,578.7,97.1,578.7,94.4z"/>
	</g>
	<g>
		
			<rect x="405.4" y="37.7" transform="matrix(6.386817e-03 -1 1 6.386817e-03 240.5743 626.7192)" fill="none" width="60.5" height="309.1"/>
		<path fill="#F6F7EB" d="M303.5,169.2l-5,1.6c-0.9-3.1-2.6-5-5.7-5.1c-3.6,0-5.6,2.9-5.6,6c0,3.8,2.3,6.8,5.9,6.8
			c2.8,0,4.7-2.3,5.5-4.3l4.8,0.9c-0.9,5.1-4.8,8.6-10.2,8.6c-6.6,0-10.8-5-10.7-11.4c0-7.2,4.2-11.7,11.1-11.6
			C297.8,160.7,302,163,303.5,169.2z M283.8,172.3c0,5.7,3.5,9.9,9.3,10c4.1,0,7.3-2.5,8.4-6.2l-2-0.4c-0.9,2.2-2.8,4.3-6.4,4.3
			c-4.5,0-7.3-3.5-7.3-8.3c0-3.8,2.6-7.5,7-7.4c3.9,0,5.7,1.7,6.6,4.7l2.3-0.7c-1.4-4.4-4.5-6.2-8.3-6.2
			C287.5,162.1,283.9,165.9,283.8,172.3z"/>
		<path fill="#F6F7EB" d="M315,170.5l5.5-9.1h5.3l-8.5,13.8l-0.1,8.4h-4.8l0.1-8.4l-8.3-13.9h5.3L315,170.5z M308.7,162.8h-1.9
			l7.2,12v7.3h1.9v-7.3l7.4-11.9h-1.9l-6.4,10.5L308.7,162.8z"/>
		<path fill="#F6F7EB" d="M329.5,183.7l0.1-22.2l8.9,0.1c5.9,0,9.1,2,9.1,6.3c0,1.6-0.6,3.4-1.8,4c2.1,1.1,3.1,2.8,3.1,4.9
			c0,4-2.8,7.1-7.4,7L329.5,183.7z M341.4,182.3c3.7,0,5.9-2.4,5.9-5.6c0-2.1-1-3.9-4.8-4.5c2.8-1.1,3.6-2.5,3.6-4.4
			c0-3.2-2.6-4.8-7.6-4.8H331l-0.1,19.3H341.4z M332.8,180.3v-7h7.7c1.7,0,5.1,0.7,5,3.6c0,2.2-2,3.5-4.5,3.5L332.8,180.3z
			 M339.3,164.9c3.5,0,5.2,1.1,5.1,3.1c0,3.6-4.5,3.6-7,3.6h-4.6V165L339.3,164.9z M341.2,178.9c1.7,0,3-0.7,3-2
			c0-1.7-2.4-2.1-3.6-2.1h-6.3v4.1H341.2z M334.4,166.3v3.8h3.8c2.2,0,4.9,0,4.9-2.1c0-1-1.2-1.6-3.7-1.6L334.4,166.3z"/>
		<path fill="#F6F7EB" d="M369.9,183.9l-16.1-0.1l0.1-22.2l16.6,0.1l-0.5,5.1l-11.3-0.1v2.3l9,0.1l-0.6,4.9l-8.4-0.1v5l12,0.1
			L369.9,183.9z M368.9,180.4l-11.7-0.1v-7.9l8.6,0.1l0.2-2l-8.8-0.1v-5.3l11.3,0.1l0.3-2.1l-13.5-0.1l-0.1,19.3l13.4,0.1
			L368.9,180.4z"/>
		<path fill="#F6F7EB" d="M375.5,161.7l10.3,0.1c4.8,0,9,1.9,9,6.9c0,3.8-2.7,6-6.3,6c2.6,2.5,4.4,5.6,6,9.3h-5.9
			c-1.2-3.2-2.8-5.8-5.3-8.5h-3l-0.1,8.4h-4.8L375.5,161.7z M376.8,182.5h1.9l0.1-8.4h5.1c2.9,3,4.4,5.4,5.7,8.4h2.5
			c-1.7-3.3-3.1-5.9-6.3-8.8c4.5-0.4,7.3-1.1,7.3-5.1c0-3.9-3.2-5.5-7.3-5.5L377,163L376.8,182.5z M385.4,165.2c4,0,6,0.9,6,3.5
			c0,3.4-3.2,3.5-6.3,3.4h-6.4v-7L385.4,165.2z M380.2,166.6v4.1h5c2.3,0,4.9,0,4.9-2c0-1.5-1.2-2.1-4.6-2.1H380.2z"/>
		<path fill="#F6F7EB" d="M415.2,176.2c1.2,2.3,2.2,3.3,5.5,3.3c3,0,5.5-0.8,5.5-2.6c0-2.8-13.7-0.1-13.6-9c0-5.2,5.4-6.5,9-6.5
			c4.3,0,8.3,1.4,9.7,5.5l-4.3,2.5c-1.2-1.8-3.2-3.1-5.1-3.1c-1.6,0-4.4,0.2-4.4,1.8c0,0.5,0.9,0.9,2,1.3c4,1.3,11.6,1,11.6,7.7
			c0,5.5-5.8,7.4-9.9,7.4c-5.5,0-9.1-2.3-10.3-5.9L415.2,176.2z M412.7,179.1c1.1,1.9,3.4,3.9,8.5,4c3.5,0,8.4-1.5,8.4-5.9
			c0-4.2-3.8-4.9-7.3-5.6c-3.6-0.8-6.3-1.4-6.3-3.4c0-2.7,3.6-3.3,5.8-3.2c2.4,0,4.6,1.1,5.6,2.7l2-1.1c-1.3-2.7-4-3.6-7.9-3.6
			c-3,0-7.5,1-7.6,5.1c0,5.7,7.5,5.4,11,6.4c1.4,0.4,2.7,1.2,2.7,2.6c0,2.9-3.2,4-7,4c-2.6,0-4.9-1-6.1-3L412.7,179.1z"/>
		<path fill="#F6F7EB" d="M452.2,184.4l-16.1-0.1l0.1-22.2l16.6,0.1l-0.5,5.1l-11.3-0.1v2.3l9,0.1l-0.6,4.9l-8.4-0.1v5l12,0.1
			L452.2,184.4z M451.2,180.9l-11.7-0.1v-7.9l8.6,0.1l0.2-2l-8.8-0.1v-5.3l11.3,0.1l0.3-2.1l-13.5-0.1l-0.1,19.3l13.4,0.1
			L451.2,180.9z"/>
		<path fill="#F6F7EB" d="M478.3,170.3l-5,1.6c-0.9-3.1-2.6-5-5.7-5.1c-3.6,0-5.6,2.9-5.6,6c0,3.8,2.3,6.8,5.9,6.8
			c2.8,0,4.7-2.3,5.5-4.3l4.8,0.9c-0.9,5.1-4.8,8.6-10.2,8.6c-6.6,0-10.8-5-10.7-11.4c0-7.2,4.2-11.7,11.1-11.6
			C472.7,161.8,476.9,164.1,478.3,170.3z M458.6,173.4c0,5.7,3.5,9.9,9.3,10c4.1,0,7.3-2.5,8.4-6.2l-2-0.4c-0.9,2.2-2.8,4.3-6.4,4.3
			c-4.5,0-7.3-3.5-7.3-8.3c0-3.8,2.6-7.5,7-7.4c3.9,0,5.7,1.7,6.6,4.7l2.3-0.7c-1.4-4.4-4.5-6.2-8.3-6.2
			C462.3,163.2,458.7,167,458.6,173.4z"/>
		<path fill="#F6F7EB" d="M488,162.4l-0.1,12.6c0,3.6,2,5.1,4.5,5.2c2.5,0,4.5-1.5,4.6-5.1l0.1-12.6h4.8l-0.1,12
			c0,5.4-2.3,10.8-9.4,10.8s-9.3-5.5-9.3-10.9l0.1-12H488z M484.7,163.9l-0.1,10.6c0,4.7,1.9,9.4,7.8,9.4c6,0,7.9-4.7,8-9.3
			l0.1-10.6h-1.9l-0.1,11.1c0,4.6-2.7,6.5-6,6.5s-6-2-6-6.6l0.1-11.1L484.7,163.9z"/>
		<path fill="#F6F7EB" d="M507.6,162.6l10.3,0.1c4.8,0,9,1.9,9,6.9c0,3.8-2.7,6-6.3,6c2.6,2.5,4.4,5.6,6,9.3h-5.9
			c-1.2-3.2-2.8-5.8-5.3-8.5h-3l-0.1,8.4h-4.8L507.6,162.6z M508.9,183.4h1.9l0.1-8.4h5.1c2.9,3,4.4,5.4,5.7,8.4h2.5
			c-1.7-3.3-3.1-5.9-6.3-8.8c4.5-0.4,7.3-1.1,7.3-5.1c0-3.9-3.2-5.5-7.3-5.5l-8.9,0L508.9,183.4z M517.5,166c4,0,6,0.9,6,3.5
			c0,3.4-3.2,3.5-6.3,3.4h-6.4v-7L517.5,166z M512.3,167.5v4.1h5c2.3,0,4.9,0,4.9-2c0-1.5-1.2-2.1-4.6-2.1H512.3z"/>
		<path fill="#F6F7EB" d="M535.6,162.7l-0.1,22.2h-4.8l0.1-22.2H535.6z M532.3,164.2l-0.1,19.3h1.9l0.1-19.3H532.3z"/>
		<path fill="#F6F7EB" d="M539.5,162.8l18.4,0.1l-0.6,5.1H551l-0.1,17.2h-4.8l0.1-17.2h-6.8L539.5,162.8z M540.9,166.4h6.8
			l-0.1,17.2h1.9l0.1-17.2h6.4l0.2-2.1l-15.3-0.1L540.9,166.4z"/>
		<path fill="#F6F7EB" d="M570.8,172.1l5.5-9.1h5.3l-8.5,13.8l-0.1,8.4h-4.8l0.1-8.4l-8.3-13.9h5.3L570.8,172.1z M564.6,164.4h-1.9
			l7.2,12v7.3h1.9v-7.3l7.4-11.9h-1.9l-6.4,10.5L564.6,164.4z"/>
		<path fill="#F6F7EB" d="M303.3,198.9l-5,1.6c-0.9-3.1-2.6-5-5.7-5.1c-3.6,0-5.6,2.9-5.6,6c0,3.8,2.3,6.8,5.9,6.8
			c2.8,0,4.7-2.3,5.5-4.3l4.8,0.9c-0.9,5.1-4.8,8.6-10.2,8.6c-6.6,0-10.8-5-10.7-11.4c0-7.2,4.2-11.7,11.1-11.6
			C297.7,190.4,301.8,192.7,303.3,198.9z M283.6,202c0,5.7,3.5,9.9,9.3,10c4.1,0,7.3-2.5,8.4-6.2l-2-0.4c-0.9,2.2-2.8,4.3-6.4,4.3
			c-4.5,0-7.3-3.5-7.3-8.3c0-3.8,2.6-7.5,7-7.4c3.9,0,5.7,1.7,6.6,4.7l2.3-0.7c-1.4-4.4-4.5-6.2-8.3-6.2
			C287.3,191.8,283.7,195.6,283.6,202z"/>
		<path fill="#F6F7EB" d="M335.7,202.3c0,6.2-4.6,11.4-11,11.3c-6.5,0-10.9-5.3-10.9-11.4c0-6.6,5.1-11.6,11-11.6
			C330.8,190.6,335.8,195.7,335.7,202.3z M315.3,202.2c0,5.4,3.8,9.9,9.4,10c5.6,0,9.5-4.5,9.6-9.9c0-5.7-4.2-10.2-9.4-10.3
			C319.6,192,315.3,196.5,315.3,202.2z M332.2,202.3c0,4-3,8-7.5,8c-4.6,0-7.5-4.1-7.5-8.1c0-4.4,2.9-8,7.6-8
			C329.6,194.2,332.3,197.9,332.2,202.3z M318.7,202.2c0,3.4,2.4,6.6,6,6.6s6-3.2,6.1-6.5c0-3.5-2-6.6-6-6.6
			C321,195.6,318.7,198.6,318.7,202.2z"/>
		<path fill="#F6F7EB" d="M359.3,201.6l7.4-10.2h4.6l-0.1,22.2h-4.7l0.1-14.2l-6.5,9.1h-1.9l-6.4-9.2l-0.1,14.2H347l0.1-22.2h5
			L359.3,201.6z M351.3,192.8h-2.8l-0.1,19.3h1.8l0.1-17.3l8.6,12.3h0.4l8.7-12.2l-0.1,17.3h1.8l0.1-19.3h-2.4l-8.2,11.2
			L351.3,192.8z"/>
		<path fill="#F6F7EB" d="M387.7,206.6v7.1H383l0.1-22.2h7.7c6,0,10.8,1.4,10.7,7.6c0,5.5-4.6,7.5-9,7.5L387.7,206.6z M392.6,205.2
			c3.6,0,7.5-1.6,7.5-6c0-5-4.1-6.1-9.3-6.2h-6.3l-0.1,19.3h1.9v-7.1H392.6z M392.4,195c4,0,6,1.5,6,4.2c0,3.6-4.1,4.1-6.8,4.1h-5.3
			l0.1-8.3H392.4z M387.8,196.4v5.4h3.8c2.1,0,5.3-0.3,5.3-2.6c0-1.8-1.4-2.7-4.6-2.7L387.8,196.4z"/>
		<path fill="#F6F7EB" d="M428,214l-16.1-0.1l0.1-22.2l16.6,0.1l-0.5,5.1l-11.3-0.1v2.3l9,0.1l-0.6,4.9l-8.4-0.1v5l12,0.1L428,214z
			 M427,210.5l-11.7-0.1l0.1-7.9l8.6,0.1l0.2-2l-8.8-0.1v-5.3l11.3,0.1l0.3-2.1l-13.5-0.1l-0.1,19.3l13.4,0.1L427,210.5z"/>
		<path fill="#F6F7EB" d="M438.3,191.9l18.4,0.1l-0.6,5.1h-6.3l-0.1,17.2h-4.8l0.1-17.2h-6.8L438.3,191.9z M439.7,195.5h6.8
			l-0.1,17.2h1.9l0.1-17.2h6.4l0.2-2.1l-15.3-0.1V195.5z"/>
		<path fill="#F6F7EB" d="M470.8,192.1l-0.1,22.2h-4.8L466,192L470.8,192.1z M467.4,193.5l-0.1,19.3h1.9l0.1-19.3H467.4z"/>
		<path fill="#F6F7EB" d="M480.7,192.1l18.4,0.1l-0.6,5.1h-6.3l-0.1,17.2h-4.8l0.1-17.2h-6.8L480.7,192.1z M482,195.7h6.8l-0.1,17.2
			h1.9l0.1-17.2h6.4l0.2-2.1l-15.3-0.1V195.7z"/>
		<path fill="#F6F7EB" d="M513.1,192.3l-0.1,22.2h-4.8l0.1-22.2H513.1z M509.7,193.8l-0.1,19.3h1.9l0.1-19.3H509.7z"/>
		<path fill="#F6F7EB" d="M545.6,203.7c0,6.2-4.6,11.4-11,11.3c-6.5,0-10.9-5.3-10.9-11.4c0-6.6,5.1-11.6,11-11.6
			C540.7,192,545.6,197.1,545.6,203.7z M525.1,203.5c0,5.4,3.8,9.9,9.4,10c5.6,0,9.5-4.5,9.6-9.9c0-5.7-4.2-10.2-9.4-10.3
			C529.5,193.3,525.2,197.8,525.1,203.5z M542.1,203.6c0,4-3,8-7.5,8c-4.6,0-7.5-4.1-7.5-8.1c0-4.4,2.9-8,7.6-8
			C539.4,195.6,542.1,199.2,542.1,203.6z M528.5,203.6c0,3.4,2.4,6.6,6,6.6s6-3.2,6.1-6.5c0-3.5-2-6.6-6-6.6
			C530.8,197,528.6,199.9,528.5,203.6z"/>
		<path fill="#F6F7EB" d="M576,192.7l-0.1,22.2h-3.3l-11-13.4l-0.1,13.3h-4.7l0.1-22.2h3.5l10.8,13.4l0.1-13.3H576z M572.8,194.2
			l-0.1,16l-12.9-16.1h-1.4l-0.1,19.3h1.8l0.1-15.8l13.1,15.9h1.2l0.1-19.3L572.8,194.2z"/>
	</g>
	<g>
		<path fill="#FE5F55" d="M317.9,58.4c-0.1,11-7.9,15.8-16.3,15.7c-11.8-0.1-17.4-7.7-18.7-17.2h5.3c1.4,7.2,5.6,11.1,13.3,11.1
			c6.8,0.1,11-3.4,11.1-9.5c0-5.9-4.1-7.2-12.7-9.6c-9.4-2.6-15.7-5.4-15.7-15c0.1-10.1,7.4-15.6,16-15.5
			c10.4,0.1,15.7,6.4,17.2,14.5h-5.3c-1.6-5.2-5.4-8.4-11.9-8.4c-6.5-0.1-10.7,3.5-10.8,9.5c0,4.5,2.8,6.2,11.7,8.7
			C311.7,45.7,317.9,48.2,317.9,58.4z"/>
		<path fill="#FE5F55" d="M360.2,37.1c-0.1,9.9-5.6,17.5-15.4,17.4l-12.5-0.1l-0.1,19.1h-5.3l0.3-53.9l17.8,0.1
			C354.8,19.8,360.3,27.2,360.2,37.1z M354.9,37.1c0-6.2-3.1-11.3-10.1-11.3l-12.3-0.1l-0.1,22.6l12.3,0.1
			C351.7,48.5,354.9,43.3,354.9,37.1z"/>
		<path fill="#FE5F55" d="M412.8,47.2c-0.1,15.9-10.1,27.7-23,27.6s-22.8-12.1-22.7-28s10.2-27.7,23.1-27.6
			C403.1,19.4,412.9,31.4,412.8,47.2z M372.5,46.9c-0.1,12.4,7.5,21.8,17.4,21.9s17.6-9.1,17.7-21.6s-7.5-21.8-17.4-21.9
			S372.5,34.5,372.5,46.9z"/>
		<path fill="#FE5F55" d="M448,74.5l-20.7-26.3l-0.1,26.2h-5.3l0.3-53.9h5.3l-0.1,25.3l20.3-25.1l6.7,0.1L433.3,47l21.6,27.7
			L448,74.5z"/>
		<path fill="#FE5F55" d="M490.6,58.6L470,58.5l-5.3,16.1h-5.6l18-53.8l6.8,0.1l17.4,54h-5.6L490.6,58.6z M488.7,52.6L480.5,27
			l-8.4,25.5L488.7,52.6z"/>
		<path fill="#FE5F55" d="M545.3,21.4L545,75.3l-6.5-0.1l-24.8-45.6l0.4,22.8L514,75h-5.3l0.3-53.9l6.5,0.1l24.8,45.6L540,44
			l0.1-22.6L545.3,21.4z"/>
		<path fill="#FE5F55" d="M561.3,27.6l-0.1,17.1l21.3,0.2V51l-21.3-0.2l-0.1,18.6l22.9,0.2v6.1l-28.1-0.2l0.3-53.9l28.1,0.2v6.1
			L561.3,27.6z"/>
	</g>
	<g>
		<path fill="#FE5F55" d="M280.8,144.8c0-4.9,3.2-8.6,7.6-8.6c3.6,0,6.4,2.5,7.2,6.1h-3.8c-0.6-1.4-1.8-2.3-3.3-2.3
			c-2.4,0-4,2-4,4.7s1.6,4.7,4,4.7c1.6,0,2.8-0.9,3.3-2.3h3.8c-0.8,3.6-3.5,6.1-7.2,6.1C284,153.4,280.8,149.7,280.8,144.8z"/>
		<path fill="#FE5F55" d="M312.6,149.6h-5.5L306,153h-3.8l5.3-16.5h4.5l5.3,16.5h-3.8L312.6,149.6z M311.4,145.8l-1.6-5.1l-1.6,5.1
			H311.4z"/>
		<path fill="#FE5F55" d="M337.1,142.2c0,3.7-2.2,5.8-5.3,5.8h-2.7v5.1h-3.6v-16.5h6.3C334.9,136.5,337.1,138.5,337.1,142.2z
			 M333.5,142.3c0-1.3-0.6-1.9-1.8-1.9h-2.6v3.8h2.6C332.9,144.1,333.5,143.5,333.5,142.3z"/>
		<path fill="#FE5F55" d="M356.1,140.4h-4v12.7h-3.6v-12.7h-4v-3.8h11.6V140.4z"/>
		<path fill="#FE5F55" d="M376.6,136.5v9.8c0,4.7-2.6,7.1-6.2,7.1s-6.2-2.4-6.2-7.1v-9.8h3.6v9.5c0,2.6,1,3.5,2.6,3.5
			c1.5,0,2.6-0.9,2.6-3.5v-9.5H376.6z"/>
		<path fill="#FE5F55" d="M390.2,147.3h-1.1v5.7h-3.6v-16.5h6.6c3.1,0,5,2.1,5,5.5c0,2.6-1.1,4.2-2.9,4.9l3.9,6.1h-4.4L390.2,147.3z
			 M391.7,140.4h-2.6v3.4h2.6c1.2,0,1.8-0.6,1.8-1.7S392.9,140.4,391.7,140.4z"/>
		<path fill="#FE5F55" d="M409.7,140.4v2.5h6v3.8h-6v2.6h6.6v3.8h-10.1v-16.5h10.1v3.8L409.7,140.4L409.7,140.4z"/>
		<path fill="#FE5F55" d="M447.6,140.4h-4v12.7H440v-12.7h-4v-3.8h11.6V140.4z"/>
		<path fill="#FE5F55" d="M468.4,136.5V153h-3.6v-6.5h-5.6v6.5h-3.6v-16.5h3.6v6.2h5.6v-6.2H468.4z"/>
		<path fill="#FE5F55" d="M481.1,140.4v2.5h6v3.8h-6v2.6h6.6v3.8h-10.1v-16.5h10.1v3.8L481.1,140.4L481.1,140.4z"/>
		<path fill="#FE5F55" d="M511.9,140.4v2.6h6v3.8h-6v6.3h-3.6v-16.5h10.1v3.8L511.9,140.4L511.9,140.4z"/>
		<path fill="#FE5F55" d="M536.2,149.2v3.8h-9.5v-16.5h3.6v12.7H536.2z"/>
		<path fill="#FE5F55" d="M553.7,149.6h-5.5l-1.1,3.4h-3.8l5.3-16.5h4.5l5.3,16.5h-3.8L553.7,149.6z M552.5,145.8l-1.6-5.1l-1.6,5.1
			H552.5z"/>
		<path fill="#FE5F55" d="M580.1,143.9v9.1h-3v-2.3c-0.7,1.5-2.3,2.6-4.6,2.6c-4.1,0-7.3-3.6-7.3-8.5c0-5,3.2-8.6,7.6-8.6
			c3.6,0,6.4,2.5,7.2,5.9h-3.8c-0.6-1.3-1.8-2.1-3.3-2.1c-2.4,0-4,1.9-4,4.8c0,2.6,1.3,4.8,3.9,4.8c1.6,0,3-0.8,3.6-2.4H572v-3.4
			L580.1,143.9L580.1,143.9z"/>
	</g>
	<g>
		<g>
			<path fill="#4D7EA8" d="M222.6,201.9l-0.1-25c0-2.2,1.8-4,4-4l32.6-0.2c2.2,0,4-1.8,4-4v-3.4l0,0L263,148v1.8v-6.7
				c0-2.2-1.8-4-4-4l-30.3,0.2c-2.2,0-4,1.8-4,4v0.9c0,2.2,1.8,4,4,4l21.4-0.1c2.2,0,4,1.8,4,4v7.8c0,2.2-1.8,4-4,4l-34.4,0.2l0,0
				h-2.2l0.2,36.8c0,0.7-0.2,1.3-0.5,1.9c-0.3,0.7-0.5,1.5-0.5,2.4c0,1.5,0.6,2.9,1.6,3.9c0.3,0.3,0.6,0.5,0.9,0.7
				c0.9,0.6,1.9,0.9,3,0.9c1.5,0,2.9-0.6,3.9-1.6s1.6-2.4,1.6-3.9C223.7,203.9,223.3,202.8,222.6,201.9z M219.7,206.6
				c-0.4,0.4-0.9,0.6-1.5,0.6c-1.2,0-2.1-0.9-2.1-2.1c0-0.6,0.2-1.1,0.6-1.5c0.4-0.4,0.9-0.6,1.5-0.6s1.1,0.2,1.5,0.6
				c0.4,0.4,0.6,0.9,0.6,1.5C220.3,205.7,220.1,206.2,219.7,206.6z"/>
			<path fill="#4D7EA8" d="M264.5,120v-4.4l0,0v-8.8c0-2.9-2.4-5.2-5.3-5.2h-3.7v0.1l-60.9,0.3c-2.9,0-5.2,2.4-5.2,5.3v3.7l0,0
				l0.1,13.4c-0.6,0.3-1.2,0.7-1.7,1.2c-1,1-1.6,2.4-1.6,3.9s0.6,2.9,1.6,3.9c0.3,0.3,0.6,0.5,0.9,0.7c0.9,0.6,1.9,0.9,3,0.9
				c1.5,0,2.9-0.6,3.9-1.6s1.6-2.4,1.6-3.9s-0.6-2.9-1.6-3.8c-1-1-1.7-2.3-1.7-3.7v-5.6c0-2.9,2.3-5.3,5.2-5.3l56.4-0.3v5l-47,0.3
				c-0.3-0.6-0.7-1.2-1.2-1.7c-1-1-2.4-1.6-3.9-1.6c-3,0-5.5,2.5-5.5,5.5c0,1.5,0.6,2.9,1.6,3.9c0.3,0.3,0.6,0.5,0.9,0.7
				c0.9,0.6,1.9,0.9,3,0.9c1.5,0,2.9-0.6,3.8-1.6c1-1,2.3-1.7,3.7-1.7L264.5,120z M190.3,127.9c0.4-0.4,0.9-0.6,1.5-0.6
				c1.2,0,2.1,0.9,2.1,2.1c0,0.6-0.2,1.1-0.6,1.5c-0.4,0.4-0.9,0.6-1.5,0.6s-1.1-0.2-1.5-0.6c-0.4-0.4-0.6-0.9-0.6-1.5
				C189.6,128.8,189.9,128.3,190.3,127.9z M203.5,120.2c-0.6,0-1.1-0.2-1.5-0.6s-0.6-0.9-0.6-1.5l0,0c0-1.2,0.9-2.1,2.1-2.1
				c0.4,0,0.8,0.1,1.2,0.3c0.1,0.1,0.2,0.2,0.3,0.3c0.4,0.4,0.6,0.9,0.6,1.5C205.6,119.3,204.7,120.2,203.5,120.2z"/>
			<path fill="#4D7EA8" d="M265,128.2c0-3-2.5-5.5-5.5-5.5c-1.5,0-2.9,0.6-3.9,1.6c-0.5,0.5-0.9,1.1-1.1,1.7l-46.4,0.3l0,0h-4.5
				c-2.4,0-4.4,2-4.4,4.4l0.4,70.8h-5.1l-0.3-51.8H192h4.6v-4.9c0-2.4-2-4.4-4.4-4.4h-0.5c-2.4,0-4.4,2-4.4,4.4v4.9h2.4l0.3,60.7
				h4.4l0,0h5.1l0,0h0.2h5.3l0,0h3.4l-0.4-75.2c0-2.4,2-4.4,4.4-4.4l42-0.2c0.4,1,1.2,1.8,2,2.4c0.9,0.6,1.9,0.9,3,0.9
				C262.5,133.8,265,131.3,265,128.2z M259.5,130.4c-1.2,0-2.1-0.9-2.1-2.1c0-0.6,0.2-1.1,0.6-1.5s0.9-0.6,1.5-0.6
				c1.2,0,2.1,0.9,2.1,2.1C261.6,129.4,260.6,130.4,259.5,130.4z"/>
			<path fill="#4D7EA8" d="M251.2,156c0-1.5-0.6-2.9-1.6-3.9s-2.4-1.6-3.9-1.6s-2.9,0.6-3.9,1.6c-0.5,0.5-0.9,1.1-1.1,1.7l-17.6,0.1
				c-1.6,0-2.9-1.3-3-2.9l-0.1-6.5c0.6-0.3,1.2-0.7,1.7-1.2c1-1,1.6-2.4,1.6-3.9s-0.6-2.9-1.6-3.9s-2.4-1.6-3.9-1.6
				s-2.9,0.6-3.9,1.6s-1.6,2.4-1.6,3.9s0.6,2.9,1.6,3.9c0.3,0.3,0.6,0.5,0.9,0.7c0.2,0.2,0.5,0.3,0.8,0.4l0.1,9.4l0,0v4.4l25-0.1
				c0.3,0.6,0.7,1.2,1.2,1.7c0.3,0.3,0.6,0.5,0.9,0.7c0.9,0.6,1.9,0.9,3,0.9c1.5,0,2.9-0.6,3.9-1.6
				C250.7,158.8,251.2,157.4,251.2,156z M216.3,141c-0.4-0.4-0.6-0.9-0.6-1.5l0,0c0-0.6,0.2-1.1,0.6-1.5c0.4-0.4,0.9-0.6,1.5-0.6
				c0.4,0,0.8,0.1,1.2,0.3c0.1,0.1,0.2,0.2,0.3,0.3c0.4,0.4,0.6,0.9,0.6,1.5s-0.2,1.1-0.6,1.5c-0.4,0.4-0.9,0.6-1.5,0.6
				S216.7,141.4,216.3,141z M247.2,157.5c-0.4,0.4-0.9,0.6-1.5,0.6s-1.1-0.2-1.5-0.6c-0.4-0.4-0.6-0.9-0.6-1.5s0.2-1.1,0.6-1.5
				c0.4-0.4,0.9-0.6,1.5-0.6c0.4,0,0.8,0.1,1.2,0.3c0.1,0.1,0.2,0.2,0.3,0.3c0.4,0.4,0.6,0.9,0.6,1.5
				C247.8,156.5,247.6,157.1,247.2,157.5z"/>
		</g>
		<g>
			<g>
				<path fill="#4D7EA8" d="M95.7,44.6c0.2-3.4-2.7-6-5.9-5.8c-1.7,0.1-3.2,1-4.2,2.5c-0.5,0.8-0.9,1.8-0.9,2.8
					c-0.1,1.5,0.5,3,1.5,4l-0.4,1.4c-2.2-0.4-5.3-0.9-9.5-0.4c-1,0.1-2-0.4-2.3-1.4l-3.7-10.1v-0.1l0,0c-0.8-2.5-3.5-3.8-5.9-2.8
					c-24.7,9.3-34,32.2-32.2,51.7c1,10.2,5.9,20.6,13.5,28.6c7.3,7.6,16.4,12.3,26.2,13.6c0.1,0,0.1,0,0.2,0l-0.3,5.5
					c-39-7.4-45.5-41-45.4-52.8c0-4.8,0.5-15.4,6.7-26.5c10.1-18.2,25.5-24.9,35.6-26.2c1.2-0.2,3.9-1.6,3.4-4.2
					c-0.2-0.9-0.5-1.6-0.9-2.1C70,21,68.1,20.9,67.5,21c-20.3,2-43.6,21-47.7,48.6c-0.9,6.1-1.1,13.1,0,19.7
					c2.2,13.5,8.7,26.1,18.3,35.5c5,4.9,10.7,8.7,16.8,11.4c5.1,2.2,10.5,3.6,16.1,4.2c2.3,0.2,4.3-1.3,4.8-3.5
					c0.1-0.2,0.1-0.3,0.1-0.5l1-12.5c0-3-2.6-4-3.9-4c-7.8,0-15-4.8-20.9-10.9c-6.2-6.5-10.4-15.2-11.1-23.3
					c-0.9-9.1,1.2-18.3,5.8-25.9c4.3-7.1,10.6-12.5,18.6-16c1.1-0.5,2.4,0.1,2.9,1.2c0.9,2.5,1.9,5.1,2.5,6.8c0.4,1,1.4,1.6,2.5,1.3
					c1.9-0.5,4.4-0.9,7.4-0.7c2.9,0.2,6,1.1,7.5,1.7c0.5,0.2,1-0.1,1.1-0.5c0.6-1.8,1.2-3.7,1.2-3.7c0.1,0,0.2,0,0.2,0
					c1.7-0.1,3.2-1,4.2-2.5C95.3,46.5,95.6,45.6,95.7,44.6z M91.8,45.7c-0.4,0.4-0.9,0.7-1.4,0.7c-0.8,0.1-1.6-0.4-2.1-1.2
					c-0.1-0.3-0.2-0.6-0.2-0.9l0,0c0-0.4,0.1-0.9,0.4-1.3c0.4-0.5,0.9-0.9,1.6-0.9c0.1,0,0.1,0,0.2,0c1.1,0,2,0.8,2.1,1.9
					C92.3,44.7,92.2,45.3,91.8,45.7z"/>
			</g>
			<path fill="#4D7EA8" d="M114.1,122.9L103,109.4l-0.2-0.3l-5.7-6.8l-0.4,0.3c-6.9,4.6-15.4,7.7-22.9,7c-7-0.7-13.2-4.1-17.5-9.6
				c-4.7-6.1-6.9-14.3-5.8-22c0.7-4.8,3-11.5,9.8-16.9c0.2-0.2,0.5-0.4,0.7-0.5c0.9,0.5,1.9,0.8,2.9,0.8c3-0.1,5.4-2.6,5.4-5.6
				c-0.1-3.2-2.9-5.8-6.2-5.4c-2.4,0.3-4.4,2.2-4.8,4.7c-0.1,0.7-0.1,1.3,0.1,2c-6.8,5-11.1,12.1-12.3,20.4
				c-1.3,8.9,1.2,18.4,6.7,25.4c5,6.4,12.3,10.4,20.5,11.3c1.2,0.1,2.3,0.2,3.5,0.2c5.7,0,11.5-1.5,17.2-4.5c0.2-0.1,0.6-0.3,1-0.6
				l2.9,3.7c1.1,1.5,0.6,3.6-1.1,4.3l-7.9,3.4l-0.9-1.9l-5.9,2.6c-1.4,0.6-2.1,2.3-1.5,3.7l1.5,3.4c0.6,1.4,2.3,2.1,3.7,1.5l5.9-2.6
				l-1-2.2c1.5-0.4,3.2-0.9,4.9-1.5c3.1-1.2,5.8-2.6,7.8-4c0.9,1.1,1.9,2.3,2.8,3.4l2.7,3.3c-1,1.2-3.7,4.2-8.2,5.5
				c-3.1,0.9-5.8,0.6-7.3,0.3l0,0c-0.8-0.4-1.6-0.6-2.6-0.6c-3,0-5.5,2.5-5.5,5.5s2.5,5.5,5.5,5.5c1.6,0,3-0.7,4-1.8
				c8.9-1.2,16.6-5.3,22.2-9.2c1.4-0.9,1.6-2.8,0.6-4.1L114.1,122.9z M62.4,54.4c0.4-0.4,0.9-0.7,1.5-0.6c1.2,0,2.1,0.9,2.1,2.1
				c0,1.2-0.9,2.1-2.1,2.1c-0.6,0.1-1.1-0.2-1.5-0.6c-0.4-0.4-0.6-0.9-0.6-1.5S62,54.8,62.4,54.4z M90.8,139
				c-0.6,0.1-1.1-0.2-1.5-0.6c-0.4-0.4-0.6-0.9-0.6-1.5s0.2-1.1,0.6-1.5s0.9-0.7,1.5-0.6c1.2,0,2.1,0.9,2.1,2.1S92,139,90.8,139z"/>
			<path fill="#4D7EA8" d="M112.7,36.4c1.1,0.7,2,1.5,2.9,2.2l2.4-2.9c1.5-1.8,1-4.3-0.8-5.7c-9.4-7-21.8-11.3-36.5-11.3
				c-2.2,0-4,1.7-4,3.9c0,5.8,0.1,13,0.1,13h0.1l0,0c12.3,0.3,20.1,0.8,28.1,6.9c-0.1,0.2-0.1,0.5-0.2,0.7c-0.1,0.3-0.2,0.5-0.3,0.8
				c-0.1,0.6-0.1,1.2,0,1.9v-0.1c0,0.1,0,0.1,0,0.2c0.1,0.7,0.4,1.3,0.8,1.8l-1.4,1.7c-2.5-1.3-5.6-0.6-7.1,1.8l0,0
				c-1.7,2.5-1,6,1.6,7.6c0.9,0.6,2,0.9,3,0.9c1.8,0,3.5-0.9,4.6-2.5c0.8-1.2,1.1-2.7,0.8-4.1c-0.1-0.3-0.2-0.6-0.4-0.9l1.8-2.2
				c0.6,0.2,1.1,0.3,1.7,0.3c0.4,0,0.7,0,1.1-0.1c1.4-0.3,2.7-1.1,3.5-2.4c0.8-1.2,1.1-2.7,0.8-4.1c-0.3-1.4-1.1-2.7-2.4-3.5
				c-1.4-0.9-3-1.1-4.5-0.6c-8.7-7-17.5-8-27.2-8.4v-4c4.7-0.1,12.1,0.3,20.5,3.5C104.4,31.8,108.4,33.5,112.7,36.4z M103.2,55.5
				c-0.6,1-2,1.2-2.9,0.6c-1-0.6-1.2-2-0.6-2.9c0.6-1,1.9-1.2,2.9-0.6C103.5,53.3,103.8,54.6,103.2,55.5z M111.1,43.2
				c0.5,0.3,0.8,0.8,0.9,1.3c0.1,0.6,0,1.1-0.3,1.6c-0.6,1-2,1.2-2.9,0.6c-0.5-0.3-0.8-0.8-0.9-1.3c-0.1-0.6,0-1.1,0.3-1.6l0,0
				c0.4-0.6,1.1-0.9,1.8-0.9C110.3,42.9,110.7,43,111.1,43.2z"/>
		</g>
		<g>
			<path fill="#4D7EA8" d="M197,88.5c1.3,0,2.4-1.1,2.4-2.4l-0.1-24.7h-0.1v-5.9l-31.3,0.2h-5.1l0.1,11.3c-1.7,0.9-2.9,2.7-2.9,4.8
				c0,1.5,0.6,2.9,1.6,3.9s2.4,1.6,3.9,1.6l0,0c2,0,3.6-1.1,4.6-2.7h8.6v2.2h5.6c2.1,0,3.7-1.7,3.7-3.8v-1.8c0-2.1-1.7-3.7-3.8-3.7
				h-5.6v1.9h-8.2c-0.5-1.1-1.4-1.9-2.4-2.5v-2.4l19.2-0.1c1.8,0,3.3,1.5,3.3,3.3v8.8c0,1.7-1.4,3.1-3.1,3.1l-22.2,0.1v6.5v2v0.4
				l0.1,17.6c0,2.1,0,3.7,0,3.7h3.4c2.1,0,3.7-2.7,3.7-4.8L172.3,91c0-1.3,1-2.4,2.4-2.4l15.7-0.1H197z M165.3,73.9
				c-0.6-0.1-1.1-0.2-1.5-0.6s-0.6-0.9-0.6-1.5c0-1.2,0.9-2.1,2.1-2.1c1.1-0.1,2.1,0.9,2.1,2.1C167.4,72.9,166.5,73.9,165.3,73.9z"
				/>
			<path fill="#4D7EA8" d="M172.2,155.1c-0.5-0.5-1.1-0.8-1.7-1.1l-0.2-33.6v-5.1l-9.5,0.1c-0.3-0.5-0.5-0.9-0.9-1.3
				s-0.9-0.6-1.3-0.9l-0.3-48.7V63v-7v-0.5l-41.6,0.2c-2.6,0-4.6,2.1-4.6,4.6v1.4v2.9l0.1,16v6c0,1.6,1.3,2.9,2.9,2.9l12.7-0.1
				c0.5,0,1,0.2,1.4,0.4c0.7,0.4,1.4,0.7,2.4,0.6c3,0,5.5-2.5,5.5-5.5s-2.4-5.5-5.5-5.5c-1.2,0-2.2,0.4-3.1,1.1l-9,0.1
				c-1.6,0-2.9-0.9-2.9-2.9c0-1.9,0-4.9,0-6.1c0-1.3,0.1-2.3,0.4-3.2c0.5-1.4,1.5-2.2,1.8-2.5c2.3-2.2,4.9-2.2,7.4-2.3h22.4
				c1.4,0,2.4,0.3,3.4,1.2c0.8,0.8,1.2,1.7,1.2,3.1c0,1,0.2,43.4,0.2,43.4c0,0.9-0.3,1.8-1,2.4c-1.2,1-2,2.5-1.9,4.1
				c0,3,2.5,5.5,5.5,5.5l0,0c2.1,0,3.8-1.2,4.8-3h5.1l0.2,33.6c-0.6,0.3-1.2,0.6-1.7,1.1c-1,1-1.6,2.4-1.6,3.9s0.6,2.9,1.6,3.9
				s2.4,1.6,3.9,1.6c1.7,0,2.9-0.6,3.9-1.6s1.6-2.4,1.6-3.9C173.9,157.5,173.3,156.1,172.2,155.1z M131.7,82.9c1.2,0,2.1,1,2.1,2.1
				c0,1.2-1,2.1-2.1,2.1c-1.2,0-2.1-1-2.1-2.1C129.5,83.9,130.5,82.9,131.7,82.9z M156.1,120L156.1,120c-1.2,0-2.1-0.9-2.1-2.1
				s0.9-2.1,2.1-2.1c0.5,0,1.1,0.2,1.5,0.6s0.6,0.9,0.6,1.5C158.2,119,157.2,120,156.1,120z M169.9,160.5c-0.4,0.4-0.9,0.6-1.5,0.6
				c-0.5,0.1-1.1-0.2-1.5-0.6c-0.4-0.4-0.6-0.9-0.6-1.5s0.2-1.1,0.6-1.5c0.4-0.4,0.8-0.8,1.5-0.6c0.6,0,1.1,0.2,1.5,0.6
				c0.4,0.4,0.6,0.9,0.6,1.5S170.3,160.1,169.9,160.5z"/>
			<path fill="#4D7EA8" d="M158.5,155.3l-0.2-27.5h-4.4l0.1,25.5c0,1.1-0.9,2-2,2h-3.1c-1.1,0-2-0.9-2-2l-0.5-83.5h-4.7L130,69.9
				c-0.3-0.6-0.6-1.1-1.1-1.6c-1-1-2.6-1.7-3.9-1.6c-1.5,0-2.9,0.6-3.9,1.6s-1.6,2.4-1.6,3.9c0,3,2.5,5.5,5.5,5.5l0,0
				c1.6,0,3-0.7,4-1.9c0.4-0.5,1-0.8,1.6-0.8h6.8c1.1,0,2,0.9,2,2l0.5,82.7v4.5l14.2-0.1l0,0h4.4l0,0V155.3z M125,74.4
				c-1.2,0-2.1-1-2.1-2.1s1-2.1,2.1-2.1c1.2,0,2.1,1,2.1,2.1S126.2,74.4,125,74.4z"/>
		</g>
	</g>
</g>
<g id="CTF_wordmark">
</g>
</svg>
